<svg width="34" height="34" viewBox="0 0 34 34" fill="none" xmlns="http://www.w3.org/2000/svg">
<path d="M26.2083 8.5H7.79167C5.83566 8.5 4.25 10.0857 4.25 12.0417V23.375C4.25 25.331 5.83566 26.9167 7.79167 26.9167H26.2083C28.1643 26.9167 29.75 25.331 29.75 23.375V12.0417C29.75 10.0857 28.1643 8.5 26.2083 8.5Z" fill="#5B6BF8" fill-opacity="0.1" stroke="#5B6BF8" stroke-width="2.26667"/>
<path d="M8.5 8.5V7.08333C8.5 6.33189 8.79851 5.61122 9.32986 5.07986C9.86122 4.54851 10.5819 4.25 11.3333 4.25H22.6667C23.4181 4.25 24.1388 4.54851 24.6701 5.07986C25.2015 5.61122 25.5 6.33189 25.5 7.08333V8.5" stroke="#5B6BF8" stroke-width="2.26667" stroke-linecap="round"/>
<path d="M12.75 18.4165H21.25M12.75 22.6665H18.4167" stroke="#5B6BF8" stroke-width="2.26667" stroke-linecap="round"/>
</svg>
